#!OML:ASF F:\VICON\USERDATA\INSTALL\rory3\rory3.ASF
:FULLY-SPECIFIED
:DEGREES
67
root 0.9887271475749996 17.836234370763627 39.27120671219594 -2.9996889325627043 -3.8772856268225273 -1.715571630351898
lfemur 3.2476545322186468 -1.4805160076351385 -16.96868876409943
ltibia 48.39725375522536
lfoot -2.893580976156896 1.6848242052448836
ltoes -5.589997816540778
rfemur -21.003672393351067 3.912710466414577 25.47344481020887
rtibia 27.00330283625457
rfoot -15.162420852551158 -9.325210655001573
rtoes 3.1042576544606586
lowerback 1.0 -0.7081899778195394 0.15797138259090926
upperback 0.4520901650652292 -0.6844313245987084 2.340138449516065
thorax -4.853257351235947 -0.3282081104028849 2.6461254898617654
lowerneck -16.97625747453645 -2.6111030803129163 -1.9110232092668182
upperneck 22.063243747524144 -3.2317825136241787 0.39884466690091225
head 9.90387607970625 -1.612495633201192 0.11074509871426971
lclavicle -1.0678964598252096e-15 -3.9987570365480656e-16
lhumerus -26.714105206995182 -3.567344756970056 83.69160934073457
lradius 23.578278404560145
lwrist 6.118403876475325
lhand -27.041496007855308 23.350978152374555
lfingers nan
lthumb -0.10048867566811326 53.88495129821333
rclavicle -1.1602690972660662e-15 -4.769968832189593e-16
rhumerus -30.880320237597054 -23.210031381575366 -77.62258224318064
rradius 28.33636121383159
rwrist 5.397596515678139
rhand -17.70160920336716 1.0
rfingers nan
rthumb 8.70674354027018 -8.618107611288904
68
root 0.9900205486844209 17.837349146449103 39.05034642049837 -2.977723356751339 -4.0208259992091335 -4.01305722760254
lfemur -0.21578142191568261 -0.5613219326481098 -13.576727227856157
ltibia 53.118192061935076
lfoot -3.2281533234393773 2.7077564500338944
ltoes -6.4772290334070375
rfemur -18.02677085286027 4.8588928384827055 27.970830417726397
rtibia 26.482190417037884
rfoot -17.55491650669932 -10.68118012822993
rtoes 2.2167152776510712
lowerback 1.0 -0.41607630311429633 1.9066931431685665
upperback 0.41757332624555477 0.07900105845069394 2.738533110746069
thorax -5.026061816220231 0.048465429864558984 2.1466349339976736
lowerneck -17.06622766329582 -2.651363845050583 -1.7028048874864483
upperneck 21.92485755520582 -3.2992365088306035 0.36723661968557775
head 9.862230803627542 -1.6403368343566282 0.0676986296893139
lclavicle -1.065598143048355e-15 -3.9958223800000535e-16
lhumerus -27.252340557279133 -3.2261676287700256 83.88585532644619
lradius 22.687325854618557
lwrist 6.498888941175838
lhand -27.08561111826807 23.27320342195314
lfingers nan
lthumb -0.17652648873259524 53.76650200968126
rclavicle -1.1577660821429331e-15 -4.761618902184352e-16
rhumerus -30.426040983384528 -23.04532668371387 -77.53145861600467
rradius 28.239090234484987
rwrist 5.221674695814963
rhand -17.73420955242246 1.0
rfingers nan
rthumb 8.666904686350177 -8.71342477860332
69
root 0.9844887615954078 17.83647805756624 39.30200168757045 -2.973466605093627 -4.0513602150139745 -4.873744805938465
lfemur -3.899192683278777 0.22241214099501638 -11.84460197787239
ltibia 57.13301103526203
lfoot -3.6620684396610805 3.1263340300971003
ltoes -7.3398600218010195
rfemur -14.464049784654543 5.303364966867093 29.118027458734193
rtibia 25.91079606873248
rfoot -19.637915458690937 -12.041630677640093
rtoes 0.9569435971898037
lowerback 1.0 -0.12274513478768145 2.658859504024725
upperback 0.4132873476005882 0.5739915628117545 2.8020717777652093
thorax -5.115434849348754 0.29281177564914257 1.7096269416986702
lowerneck -17.192979256492713 -2.7066924197051145 -1.4567174237273668
upperneck 21.730241872872455 -3.3924374788908667 0.3583391209425617
head 9.801843585777169 -1.6777683638117376 0.025190312160488296
lclavicle -1.0620751492669934e-15 -3.9887961481730904e-16
lhumerus -27.87854708302352 -2.7695779802518965 84.07157590639757
lradius 22.070622038031228
lwrist 6.824287898409976
lhand -27.13534627291167 23.2166643186628
lfingers nan
lthumb -0.25761242338915713 53.69257112755607
rclavicle -1.1538294767149447e-15 -4.745650197519324e-16
rhumerus -29.94677439517794 -22.703831998544693 -77.57181481952233
rradius 28.154464192211616
rwrist 5.053634663463982
rhand -17.728561930651875 1.0
rfingers nan
rthumb 8.697813437908339 -8.603027389039699
70
root 0.9951741705710957 17.84000315030436 39.65922673304586 -3.156589176088521 -3.6066787756185823 -4.8478154666327375
lfemur -7.6723169191058025 0.5574565333386916 -11.659733478562861
ltibia 59.99327565227511
lfoot -4.691047035753689 2.727021419917991
ltoes -6.303620327220081
rfemur -11.197682619801379 5.1139015178877765 29.241301930529158
rtibia 25.721511979619084
rfoot -20.856718826430452 -12.835630031811586
rtoes -0.5196915271320557
lowerback 1.0 0.09740985488497444 2.8440145228221105
upperback 0.44228041513028665 0.916197203060153 2.7813715931098635
thorax -5.103936056832986 0.4637687761308284 1.3604510730585133
lowerneck -17.284384494133267 -2.7824114187568987 -1.25433096660394
upperneck 21.491615676257258 -3.518348539923477 0.3775822520807863
head 9.721262523976485 -1.7283944451646291 -0.015373311042492427
lclavicle -1.0581084101543963e-15 -3.9765533384966034e-16
lhumerus -28.63249713848656 -2.203574934815972 84.2424872439001
lradius 21.73497818004734
lwrist 7.069429595017234
lhand -27.23131523112178 23.126570013397547
lfingers nan
lthumb -0.41991379062707446 53.50569425051905
rclavicle -1.1495500830601546e-15 -4.72571494511756e-16
rhumerus -29.423722656931062 -22.147835599263683 -77.6803361909548
rradius 28.104434386506934
rwrist 4.907466341471631
rhand -17.734486070162507 1.0
rfingers nan
rthumb 8.653839696102692 -8.64287697254015
71
root 1.0004894340944086 17.84048212396958 39.8697976090001 -3.261040933429818 -2.818657815640425 -5.359522053338969
lfemur -11.589355477853111 0.442196647411087 -11.654153635035936
ltibia 61.52440895595923
lfoot -4.821925540729055 2.938417393805113
ltoes -7.718659138804783
rfemur -8.365546767233006 4.729181099469852 29.533463318548215
rtibia 25.906900825631748
rfoot -20.836743248920868 -12.581104668868884
rtoes -1.9459508448718599
lowerback 1.0 0.30359184406462175 3.4493112536534825
upperback 0.43355534461852147 1.340712280890331 2.780364759711242
thorax -5.104112625751897 0.6537105301335393 0.792307550395883
lowerneck -17.288140494635737 -2.866280966686429 -1.1185415994233847
upperneck 21.270226125838974 -3.657301594562267 0.4061715688253888
head 9.641362820239 -1.7846500909883714 -0.053316155301960017
lclavicle -1.056031620872606e-15 -3.976710837586532e-16
lhumerus -29.499724386223765 -1.5688773620940066 84.38848921269346
lradius 21.64834333488484
lwrist 7.266125067016993
lhand -27.37042951666738 23.018985008851153
lfingers nan
lthumb -0.5992876081393501 53.357755696579304
rclavicle -1.1449042241632735e-15 -4.700765504185272e-16
rhumerus -28.871184116479633 -21.366604022855796 -77.78448673930916
rradius 28.105069779632665
rwrist 4.761266385248542
rhand -17.707623924491216 1.0
rfingers nan
rthumb 8.681662343470201 -8.46979065686585
